<svg width="32" height="31" viewBox="0 0 32 31" fill="none" xmlns="http://www.w3.org/2000/svg">
<path d="M28.3293 31L18.8718 21.5839L22.4993 17.9723L31.9568 27.3883L28.3293 31ZM4.49122 31L0.863697 27.3883L12.7827 15.5215L9.84615 12.5978L8.63697 13.8017L6.43454 11.6089V15.1345L5.22537 16.3384L0 11.1359L1.20918 9.93204H4.75033L2.59109 7.78225L8.72334 1.67684C9.29914 1.10356 9.91812 0.687935 10.5803 0.42996C11.2425 0.171985 11.919 0.0429977 12.61 0.0429977C13.3009 0.0429977 13.9775 0.171985 14.6397 0.42996C15.3018 0.687935 15.9208 1.10356 16.4966 1.67684L12.5236 5.63246L14.6828 7.78225L13.4737 8.98613L16.4102 11.9098L20.2969 8.04022C20.1817 7.72492 20.0884 7.39529 20.017 7.05132C19.9456 6.70735 19.9094 6.36339 19.9082 6.01942C19.9082 4.32825 20.4915 2.90193 21.6581 1.74047C22.8246 0.579012 24.2566 -0.00114486 25.9541 1.69609e-06C26.3859 1.69609e-06 26.7965 0.0429976 27.1857 0.128989C27.575 0.214981 27.9705 0.343969 28.3724 0.515952L24.0971 4.77254L27.2065 7.86824L31.4818 3.61165C31.6833 4.01295 31.8203 4.40679 31.8929 4.79318C31.9654 5.17957 32.0011 5.58831 32 6.01942C32 7.71059 31.4173 9.1369 30.2519 10.2984C29.0864 11.4598 27.6539 12.04 25.9541 12.0388C25.6086 12.0388 25.2631 12.0102 24.9177 11.9528C24.5722 11.8955 24.2411 11.7952 23.9244 11.6519L4.49122 31Z" fill="#1F7454"/>
</svg>
