<svg width="32" height="30" viewBox="0 0 32 30" fill="none" xmlns="http://www.w3.org/2000/svg">
<path d="M9.33333 7.50016V4.16683C9.33333 3.28277 9.68452 2.43493 10.3096 1.80981C10.9348 1.18469 11.7826 0.833496 12.6667 0.833496H19.3333C20.2174 0.833496 21.0652 1.18469 21.6904 1.80981C22.3155 2.43493 22.6667 3.28277 22.6667 4.16683V7.50016M16 15.8335V15.8502M1 10.8335C1 9.94944 1.35119 9.10159 1.97631 8.47647C2.60143 7.85135 3.44928 7.50016 4.33333 7.50016H27.6667C28.5507 7.50016 29.3986 7.85135 30.0237 8.47647C30.6488 9.10159 31 9.94944 31 10.8335V25.8335C31 26.7176 30.6488 27.5654 30.0237 28.1905C29.3986 28.8156 28.5507 29.1668 27.6667 29.1668H4.33333C3.44928 29.1668 2.60143 28.8156 1.97631 28.1905C1.35119 27.5654 1 26.7176 1 25.8335V10.8335Z" stroke="#1F7454" stroke-width="2" stroke-linecap="round" stroke-linejoin="round"/>
<path d="M1 17.5C5.65263 19.8445 10.79 21.0657 16 21.0657C21.21 21.0657 26.3474 19.8445 31 17.5" stroke="#1F7454" stroke-width="2" stroke-linecap="round" stroke-linejoin="round"/>
</svg>
