<svg width="32" height="28" viewBox="0 0 32 28" fill="none" xmlns="http://www.w3.org/2000/svg">
<path d="M30.4 4.8C30.8243 4.8 31.2313 4.96857 31.5314 5.26863C31.8314 5.56869 32 5.97565 32 6.4C32 6.82435 31.8314 7.23131 31.5314 7.53137C31.2313 7.83143 30.8243 8 30.4 8V24C30.8243 24 31.2313 24.1686 31.5314 24.4686C31.8314 24.7687 32 25.1757 32 25.6C32 26.0243 31.8314 26.4313 31.5314 26.7314C31.2313 27.0314 30.8243 27.2 30.4 27.2H1.6C1.17565 27.2 0.768687 27.0314 0.468629 26.7314C0.168571 26.4313 0 26.0243 0 25.6C0 25.1757 0.168571 24.7687 0.468629 24.4686C0.768687 24.1686 1.17565 24 1.6 24V8C1.17565 8 0.768687 7.83143 0.468629 7.53137C0.168571 7.23131 0 6.82435 0 6.4C0 5.97565 0.168571 5.56869 0.468629 5.26863C0.768687 4.96857 1.17565 4.8 1.6 4.8H30.4ZM8 11.2C7.57565 11.2 7.16869 11.3686 6.86863 11.6686C6.56857 11.9687 6.4 12.3757 6.4 12.8V24H9.6V12.8C9.6 12.3757 9.43143 11.9687 9.13137 11.6686C8.83131 11.3686 8.42435 11.2 8 11.2ZM16 11.2C15.5757 11.2 15.1687 11.3686 14.8686 11.6686C14.5686 11.9687 14.4 12.3757 14.4 12.8V24H17.6V12.8C17.6 12.3757 17.4314 11.9687 17.1314 11.6686C16.8313 11.3686 16.4243 11.2 16 11.2ZM24 11.2C23.5757 11.2 23.1687 11.3686 22.8686 11.6686C22.5686 11.9687 22.4 12.3757 22.4 12.8V24H25.6V12.8C25.6 12.3757 25.4314 11.9687 25.1314 11.6686C24.8313 11.3686 24.4243 11.2 24 11.2ZM25.6 0C26.0243 0 26.4313 0.168571 26.7314 0.468629C27.0314 0.768688 27.2 1.17565 27.2 1.6C27.2 2.02435 27.0314 2.43131 26.7314 2.73137C26.4313 3.03143 26.0243 3.2 25.6 3.2H6.4C5.97565 3.2 5.56869 3.03143 5.26863 2.73137C4.96857 2.43131 4.8 2.02435 4.8 1.6C4.8 1.17565 4.96857 0.768688 5.26863 0.468629C5.56869 0.168571 5.97565 0 6.4 0H25.6Z" fill="#1F7454"/>
</svg>
