<svg width="34" height="34" viewBox="0 0 34 34" fill="none" xmlns="http://www.w3.org/2000/svg">
<path d="M15.1102 8.66022C14.9402 8.17724 14.6245 7.75892 14.2067 7.46296C13.7889 7.16699 13.2896 7.00797 12.7776 7.00782H10.8605C10.3166 7.00935 9.79247 7.21145 9.38836 7.57541C8.98425 7.93938 8.72862 8.43963 8.67041 8.98035C8.6122 9.52108 8.75551 10.0643 9.0729 10.5059C9.39028 10.9475 9.85943 11.2566 10.3905 11.3738L13.3044 12.012C13.9007 12.1421 14.4278 12.4881 14.7844 12.9834C15.141 13.4786 15.3019 14.0882 15.2362 14.695C15.1706 15.3017 14.8829 15.8627 14.4286 16.2702C13.9743 16.6777 13.3854 16.9029 12.7751 16.9024H11.1252C10.6137 16.9026 10.1148 16.7443 9.69709 16.4493C9.27936 16.1543 8.96333 15.737 8.79252 15.255M11.9538 7.00782V4.53418M11.9538 19.376V16.9024M16.6711 32.8995V19.9128C16.6711 19.0928 16.9968 18.3063 17.5767 17.7264C18.1566 17.1465 18.9431 16.8208 19.7631 16.8208C20.5832 16.8208 21.3697 17.1465 21.9495 17.7264C22.5294 18.3063 22.8552 19.0928 22.8552 19.9128V26.7153H27.8025C29.1146 26.7153 30.3729 27.2366 31.3007 28.1644C32.2285 29.0922 32.7498 30.3505 32.7498 31.6626V32.8995" stroke="#1F7454" stroke-width="1.5" stroke-linecap="round" stroke-linejoin="round"/>
<path d="M11.9566 23.1662C9.67431 23.1659 7.44655 22.4688 5.57113 21.1683C3.6957 19.8678 2.262 18.0257 1.4617 15.8884C0.661401 13.751 0.53265 11.4203 1.09266 9.20787C1.65267 6.99541 2.87476 5.00662 4.59552 3.50743C6.31628 2.00823 8.45371 1.07007 10.722 0.818376C12.9903 0.566685 15.2814 1.01346 17.289 2.09897C19.2966 3.18447 20.9249 4.85698 21.9563 6.89286C22.9877 8.92874 23.373 11.231 23.0607 13.4917" stroke="#1F7454" stroke-width="1.5" stroke-linecap="round"/>
</svg>
