<svg width="17" height="23" viewBox="0 0 17 23" fill="none" xmlns="http://www.w3.org/2000/svg">
<path d="M3.26025 8.93349C4.16775 9.95149 5.16675 11.7045 5.09425 14.448C5.44625 14.7115 5.74025 15.1625 5.84025 15.8615C6.02425 17.1525 5.49875 19.2675 3.82025 19.926C3.36575 20.9985 2.86925 21.7555 2.31775 22.221H16.9883C16.9883 22.221 16.8573 20.881 16.4953 20.046C16.3673 19.753 9.41575 15.6175 9.40825 15.6115C8.42675 14.891 8.30775 14.1895 9.09875 13.7865C9.77725 13.4415 10.3603 12.3315 10.8008 11.143C10.8808 11.178 10.9658 11.186 11.0513 11.1605C12.8973 10.6215 12.9308 6.89499 11.6958 7.55299C12.8263 -2.30701 -0.503749 -2.51351 0.0147511 6.93499C1.26675 7.28499 2.39825 7.96749 3.26025 8.93349Z" fill="#1F7454"/>
</svg>
