<svg width="23" height="23" viewBox="0 0 23 23" fill="none" xmlns="http://www.w3.org/2000/svg">
<path d="M21.729 20.0497C21.601 19.7562 14.6495 15.6207 14.6415 15.6152C13.661 14.8942 13.5415 14.1927 14.3325 13.7897C15.011 13.4452 15.5945 12.3347 16.0345 11.1462C16.1131 11.1822 16.202 11.1888 16.285 11.1647C18.1315 10.6247 18.1645 6.89819 16.9295 7.55619C18.084 -2.51631 4.1385 -2.52131 5.293 7.55669C4.0565 6.89719 4.0905 10.6247 5.9365 11.1647C6.01966 11.1886 6.10861 11.1823 6.1875 11.1467C6.627 12.3347 7.2095 13.4452 7.888 13.7897C8.6855 14.1957 8.528 14.8627 7.5595 15.6307C7.2365 15.8872 2.736 18.3962 1.4655 19.2452C1.463 19.2457 1.4585 19.2487 1.4585 19.2487H1.46C0.9355 19.6002 0.5625 19.8922 0.493 20.0502C0.131 20.8847 0 22.2247 0 22.2247H22.222C22.222 22.2247 22.092 20.8847 21.729 20.0497Z" fill="#1F7454"/>
</svg>
