<svg width="32" height="30" viewBox="0 0 32 30" fill="none" xmlns="http://www.w3.org/2000/svg">
<path d="M15.9788 0C13.967 0 12.177 1.26316 11.5117 3.15789H1.72204V6.31579H4.81101L0.137958 17.3684C-0.606562 20.5263 1.72204 22.1053 5.68226 22.1053C9.64248 22.1053 12.1137 20.5263 11.2266 17.3684L6.55351 6.31579H11.4959C12.0186 7.6579 13.0483 8.68421 14.3947 9.20526V26.8421H0.137958V30H31.8197V26.8421H17.5629V9.18947C18.9094 8.68421 19.939 7.6579 20.4459 6.31579H25.4041L20.7311 17.3684C19.9866 20.5263 22.3152 22.1053 26.2754 22.1053C30.2356 22.1053 32.7068 20.5263 31.8197 17.3684L27.1466 6.31579H30.2356V3.15789H20.4618C19.7806 1.26316 17.9906 0 15.9788 0ZM15.9788 3.15789C16.399 3.15789 16.8019 3.32425 17.0989 3.62036C17.396 3.91647 17.5629 4.31808 17.5629 4.73684C17.5629 5.15561 17.396 5.55722 17.0989 5.85333C16.8019 6.14944 16.399 6.31579 15.9788 6.31579C15.5587 6.31579 15.1558 6.14944 14.8587 5.85333C14.5616 5.55722 14.3947 5.15561 14.3947 4.73684C14.3947 4.31808 14.5616 3.91647 14.8587 3.62036C15.1558 3.32425 15.5587 3.15789 15.9788 3.15789ZM5.68226 11.4474L8.05839 17.3684H3.30613L5.68226 11.4474ZM26.2754 11.4474L28.6515 17.3684H23.8993L26.2754 11.4474Z" fill="#1F7454"/>
</svg>
