<svg width="32" height="32" viewBox="0 0 32 32" fill="none" xmlns="http://www.w3.org/2000/svg">
<path d="M19.504 19.504L6.4 25.6L12.496 12.496L25.6 6.4M16 0C13.8989 0 11.8183 0.413852 9.87706 1.21793C7.93586 2.022 6.17203 3.20055 4.68629 4.68629C1.68571 7.68687 0 11.7565 0 16C0 20.2435 1.68571 24.3131 4.68629 27.3137C6.17203 28.7994 7.93586 29.978 9.87706 30.7821C11.8183 31.5861 13.8989 32 16 32C20.2435 32 24.3131 30.3143 27.3137 27.3137C30.3143 24.3131 32 20.2435 32 16C32 13.8989 31.5861 11.8183 30.7821 9.87706C29.978 7.93586 28.7994 6.17203 27.3137 4.68629C25.828 3.20055 24.0641 2.022 22.1229 1.21793C20.1817 0.413852 18.1012 0 16 0ZM16 14.24C15.5332 14.24 15.0856 14.4254 14.7555 14.7555C14.4254 15.0856 14.24 15.5332 14.24 16C14.24 16.4668 14.4254 16.9144 14.7555 17.2445C15.0856 17.5746 15.5332 17.76 16 17.76C16.4668 17.76 16.9144 17.5746 17.2445 17.2445C17.5746 16.9144 17.76 16.4668 17.76 16C17.76 15.5332 17.5746 15.0856 17.2445 14.7555C16.9144 14.4254 16.4668 14.24 16 14.24Z" fill="#1F7454"/>
</svg>
