<svg width="40" height="40" viewBox="0 0 40 40" fill="none" xmlns="http://www.w3.org/2000/svg">
<path d="M19.9998 7.91666C18.0207 7.91579 16.0716 8.40107 14.324 9.32983C12.5763 10.2586 11.0836 11.6024 9.97688 13.2432C8.8702 14.884 8.18347 16.7715 7.97706 18.7398C7.77066 20.7081 8.05088 22.697 8.79312 24.5317C8.8605 24.6848 8.89645 24.85 8.89883 25.0173C8.9012 25.1846 8.86996 25.3507 8.80695 25.5057C8.74394 25.6607 8.65045 25.8015 8.53202 25.9197C8.41359 26.0379 8.27263 26.1312 8.1175 26.1939C7.96237 26.2566 7.79622 26.2875 7.62891 26.2849C7.4616 26.2822 7.29653 26.2459 7.14349 26.1783C6.99044 26.1106 6.85255 26.0129 6.73797 25.8909C6.62339 25.769 6.53446 25.6253 6.47645 25.4683C5.21569 22.3502 5.07145 18.8922 6.06818 15.6799C7.06491 12.4677 9.14132 9.69866 11.9457 7.84193C14.7501 5.98521 18.1101 5.15489 21.4565 5.49164C24.803 5.82838 27.9302 7.31147 30.3084 9.68972C32.6866 12.068 34.1697 15.1951 34.5065 18.5416C34.8432 21.888 34.0129 25.248 32.1562 28.0524C30.2994 30.8568 27.5304 32.9332 24.3182 33.9299C21.1059 34.9267 17.6479 34.7824 14.5298 33.5217C14.2292 33.3927 13.9911 33.1511 13.8666 32.8486C13.7421 32.546 13.7411 32.2068 13.8639 31.9036C13.9868 31.6004 14.2235 31.3574 14.5234 31.2268C14.8233 31.0962 15.1625 31.0884 15.4681 31.205C17.1203 31.8719 18.8995 32.1651 20.6783 32.0637C22.4571 31.9624 24.1915 31.4689 25.7572 30.6186C27.3229 29.7684 28.6813 28.5824 29.7349 27.1456C30.7885 25.7089 31.5114 24.0569 31.8517 22.308C32.192 20.5591 32.1414 18.7566 31.7034 17.0296C31.2654 15.3026 30.4509 13.6938 29.3182 12.3184C28.1856 10.9431 26.7628 9.83528 25.1518 9.07429C23.5408 8.31329 21.7815 7.91798 19.9998 7.91666Z" fill="#0D3728"/>
<path d="M10.4164 20C10.4164 22.195 11.1548 24.2183 12.3964 25.835L11.6148 26.6167L11.5664 26.6667H9.61643C8.95361 26.6673 8.31815 26.931 7.84976 27.4L5.12143 30.1283C4.94683 30.3032 4.82796 30.5258 4.77982 30.7681C4.73168 31.0104 4.75643 31.2616 4.85095 31.4899C4.94547 31.7182 5.10551 31.9133 5.31087 32.0507C5.51623 32.188 5.75769 32.2615 6.00476 32.2617H7.73809V33.995C7.73831 34.2421 7.81174 34.4835 7.94911 34.6889C8.08647 34.8943 8.28162 35.0543 8.50989 35.1488C8.73816 35.2433 8.98932 35.2681 9.23165 35.22C9.47399 35.1718 9.69662 35.0529 9.87143 34.8783L12.5998 32.1483C13.0683 31.6804 13.3321 31.0456 13.3331 30.3833V28.4333L13.3831 28.385L14.1648 27.605C15.8808 28.9222 17.9921 29.62 20.1551 29.5849C22.3181 29.5499 24.4056 28.784 26.0781 27.4119C27.7505 26.0398 28.9096 24.1423 29.3667 22.0278C29.8238 19.9134 29.5521 17.7065 28.5957 15.7661C27.6393 13.8257 26.0546 12.266 24.0992 11.3406C22.1438 10.4152 19.9329 10.1786 17.826 10.6693C15.7191 11.16 13.8402 12.3491 12.4949 14.0432C11.1496 15.7373 10.4171 17.8367 10.4164 20ZM19.9998 12.9167C21.1113 12.917 22.2072 13.1789 23.1988 13.6813C24.1904 14.1836 25.0499 14.9123 25.7077 15.8083C26.3655 16.7044 26.8032 17.7427 26.9853 18.8392C27.1675 19.9358 27.089 21.0598 26.7563 22.1204C26.4235 23.181 25.8458 24.1484 25.0699 24.9444C24.294 25.7404 23.3417 26.3425 22.2899 26.7022C21.2381 27.0619 20.1164 27.1691 19.0156 27.0149C17.9148 26.8608 16.8656 26.4497 15.9531 25.815L18.6964 23.07C19.4086 23.3722 20.2037 23.4172 20.9455 23.1974C21.6872 22.9776 22.3294 22.5066 22.762 21.8652C23.1945 21.2238 23.3905 20.4519 23.3163 19.6818C23.2421 18.9117 22.9024 18.1915 22.3554 17.6444C21.8083 17.0974 21.088 16.7576 20.318 16.6835C19.5479 16.6093 18.776 16.8053 18.1346 17.2378C17.4932 17.6704 17.0222 18.3126 16.8024 19.0543C16.5826 19.796 16.6276 20.5912 16.9298 21.3033L14.1831 24.045C13.4441 22.9826 13.0102 21.7381 12.9286 20.4465C12.847 19.155 13.1209 17.8657 13.7203 16.7188C14.3198 15.5719 15.2221 14.6111 16.3291 13.9408C17.4361 13.2705 18.7056 12.9163 19.9998 12.9167ZM11.5664 28.3333L11.6664 28.4317V30.3817C11.6659 30.6025 11.5778 30.8141 11.4214 30.97L9.40476 32.9867V31.4283C9.40476 31.2073 9.31696 30.9954 9.16068 30.8391C9.0044 30.6828 8.79244 30.595 8.57143 30.595H7.01143L9.02809 28.5783C9.10549 28.5007 9.19744 28.4391 9.29868 28.3971C9.39993 28.355 9.50847 28.3334 9.61809 28.3333H11.5664Z" fill="#0D3728"/>
</svg>
