<svg width="47" height="46" viewBox="0 0 47 46" fill="none" xmlns="http://www.w3.org/2000/svg">
<path d="M9.45222 19.9078C13.2122 27.14 19.27 33.0433 26.6594 36.7489L32.4039 31.1267C33.1089 30.4367 34.1533 30.2067 35.0672 30.5133C37.9917 31.4589 41.1511 31.97 44.3889 31.97C45.825 31.97 47 33.12 47 34.5256V43.4444C47 44.85 45.825 46 44.3889 46C19.8706 46 0 26.5522 0 2.55556C0 1.15 1.175 0 2.61111 0H11.75C13.1861 0 14.3611 1.15 14.3611 2.55556C14.3611 5.75 14.8833 8.81667 15.8494 11.6789C16.1367 12.5733 15.9278 13.57 15.1967 14.2856L9.45222 19.9078Z" fill="#10633B"/>
</svg>
