<svg width="40" height="40" viewBox="0 0 40 40" fill="none" xmlns="http://www.w3.org/2000/svg">
<path d="M19.9998 15C21.3259 15 22.5977 15.5268 23.5354 16.4645C24.473 17.4021 24.9998 18.6739 24.9998 20C24.9998 21.3261 24.473 22.5979 23.5354 23.5355C22.5977 24.4732 21.3259 25 19.9998 25C18.6738 25 17.402 24.4732 16.4643 23.5355C15.5266 22.5979 14.9998 21.3261 14.9998 20C14.9998 18.6739 15.5266 17.4021 16.4643 16.4645C17.402 15.5268 18.6738 15 19.9998 15ZM19.9998 7.5C28.3332 7.5 35.4498 12.6833 38.3332 20C35.4498 27.3167 28.3332 32.5 19.9998 32.5C11.6665 32.5 4.54984 27.3167 1.6665 20C4.54984 12.6833 11.6665 7.5 19.9998 7.5ZM5.29984 20C6.64693 22.7505 8.73868 25.0679 11.3373 26.6888C13.9359 28.3096 16.9372 29.1689 19.9998 29.1689C23.0625 29.1689 26.0637 28.3096 28.6624 26.6888C31.261 25.0679 33.3527 22.7505 34.6998 20C33.3527 17.2495 31.261 14.9321 28.6624 13.3112C26.0637 11.6904 23.0625 10.8311 19.9998 10.8311C16.9372 10.8311 13.9359 11.6904 11.3373 13.3112C8.73868 14.9321 6.64693 17.2495 5.29984 20Z" fill="#0D3728"/>
</svg>
